<?xml version="1.0" encoding="UTF-8" standalone="yes"?>
<svg version="1.1" width="24" height="24" xmlns="http://www.w3.org/2000/svg" shape-rendering="crispEdges">
  <rect x="11" y="1" width="2" height="1" fill="#FEFFFF"/>
  <rect x="8" y="2" width="1" height="1" fill="#FEFFFF"/>
  <rect x="11" y="2" width="2" height="1" fill="#FEFFFF"/>
  <rect x="15" y="2" width="1" height="1" fill="#FEFFFF"/>
  <rect x="4" y="3" width="2" height="1" fill="#FEFFFF"/>
  <rect x="18" y="3" width="2" height="1" fill="#FEFFFF"/>
  <rect x="4" y="4" width="2" height="1" fill="#FEFFFF"/>
  <rect x="9" y="4" width="2" height="1" fill="#FEFFFF"/>
  <rect x="13" y="4" width="2" height="1" fill="#FEFFFF"/>
  <rect x="18" y="4" width="2" height="1" fill="#FEFFFF"/>
  <rect x="9" y="5" width="2" height="1" fill="#FEFFFF"/>
  <rect x="13" y="5" width="2" height="1" fill="#FEFFFF"/>
  <rect x="2" y="6" width="2" height="1" fill="#FEFFFF"/>
  <rect x="6" y="6" width="1" height="1" fill="#FEFFFF"/>
  <rect x="17" y="6" width="1" height="1" fill="#FEFFFF"/>
  <rect x="20" y="6" width="2" height="1" fill="#FEFFFF"/>
  <rect x="2" y="7" width="2" height="1" fill="#FEFFFF"/>
  <rect x="20" y="7" width="2" height="1" fill="#FEFFFF"/>
</svg>